<?xml version="1.0" standalone="no"?>
<!DOCTYPE svg PUBLIC "-//W3C//DTD SVG 20010904//EN"
 "http://www.w3.org/TR/2001/REC-SVG-20010904/DTD/svg10.dtd">
<svg version="1.0" xmlns="http://www.w3.org/2000/svg"
 width="256.000000pt" height="256.000000pt" viewBox="0 0 256.000000 256.000000"
 preserveAspectRatio="xMidYMid meet">
<metadata>
Created by potrace 1.14, written by Peter Selinger 2001-2017
</metadata>
<g transform="translate(0.000000,256.000000) scale(0.100000,-0.100000)"
fill="#000000" stroke="none">
<path d="M880 2540 c0 -13 -7 -20 -20 -20 -13 0 -20 -7 -20 -20 0 -13 -7 -20
-20 -20 -17 0 -20 -7 -20 -40 0 -36 -2 -40 -25 -40 l-25 0 0 -115 0 -115 -40
0 c-33 0 -40 -3 -40 -20 0 -13 -7 -20 -20 -20 -13 0 -20 -7 -20 -20 0 -13 -7
-20 -20 -20 -13 0 -20 -7 -20 -20 0 -17 -7 -20 -40 -20 -33 0 -40 -3 -40 -20
0 -13 -7 -20 -20 -20 -13 0 -20 -7 -20 -20 0 -18 7 -20 60 -20 53 0 60 -2 60
-20 0 -13 7 -20 20 -20 13 0 20 -7 20 -20 0 -17 -7 -20 -40 -20 -33 0 -40 -3
-40 -20 0 -13 -7 -20 -20 -20 -13 0 -20 -7 -20 -20 0 -13 -7 -20 -20 -20 -13
0 -20 -7 -20 -20 0 -17 7 -20 40 -20 33 0 40 -3 40 -20 0 -17 7 -20 40 -20
l40 0 0 -40 0 -40 -40 0 c-33 0 -40 -3 -40 -20 0 -13 -7 -20 -20 -20 -11 0
-20 -7 -20 -15 0 -11 11 -15 40 -15 33 0 40 -3 40 -20 0 -18 7 -20 80 -20 73
0 80 -2 80 -20 0 -18 7 -20 85 -20 78 0 85 -2 85 -20 0 -13 7 -20 20 -20 17 0
20 -7 20 -40 l0 -40 -60 0 c-53 0 -60 -2 -60 -20 0 -13 -7 -20 -20 -20 -13 0
-20 -7 -20 -20 0 -17 -7 -20 -45 -20 -38 0 -45 -3 -45 -20 0 -18 -7 -20 -60
-20 -53 0 -60 -2 -60 -20 0 -17 -7 -20 -40 -20 -33 0 -40 -3 -40 -20 0 -13 -7
-20 -20 -20 -13 0 -20 -7 -20 -20 0 -13 -7 -20 -20 -20 -13 0 -20 -7 -20 -20
0 -13 -7 -20 -20 -20 -13 0 -20 -7 -20 -20 0 -13 -7 -20 -20 -20 -17 0 -20 -7
-20 -40 0 -33 -3 -40 -20 -40 -20 0 -20 -7 -20 -275 0 -268 0 -275 20 -275 13
0 20 -7 20 -20 0 -13 7 -20 20 -20 16 0 20 -7 20 -35 0 -28 4 -35 20 -35 13 0
20 -7 20 -20 0 -13 7 -20 20 -20 17 0 20 -7 20 -40 0 -33 3 -40 20 -40 13 0
20 -7 20 -20 0 -13 7 -20 20 -20 17 0 20 -7 20 -40 0 -33 3 -40 20 -40 17 0
20 -7 20 -40 l0 -40 465 0 465 0 0 40 0 40 145 0 c138 0 145 1 145 20 0 18 7
20 60 20 53 0 60 2 60 20 0 13 7 20 20 20 13 0 20 7 20 20 0 17 7 20 40 20 33
0 40 3 40 20 0 13 7 20 20 20 13 0 20 7 20 20 0 17 7 20 40 20 33 0 40 3 40
20 0 13 7 20 20 20 18 0 20 7 20 55 0 48 2 55 20 55 20 0 20 7 20 275 0 268 0
275 -20 275 -17 0 -20 7 -20 40 0 33 -3 40 -20 40 -13 0 -20 7 -20 20 0 13 -7
20 -20 20 -13 0 -20 7 -20 20 0 13 -7 20 -20 20 -13 0 -20 7 -20 20 0 13 -7
20 -20 20 -13 0 -20 7 -20 20 0 17 -7 20 -40 20 -33 0 -40 3 -40 20 0 18 -7
20 -60 20 -53 0 -60 2 -60 20 0 17 -7 20 -40 20 -33 0 -40 3 -40 20 0 15 -7
20 -25 20 -18 0 -25 5 -25 20 0 18 -7 20 -60 20 l-60 0 0 40 c0 33 3 40 20 40
13 0 20 7 20 20 0 18 7 20 85 20 78 0 85 2 85 20 0 18 7 20 80 20 73 0 80 2
80 20 0 17 7 20 40 20 29 0 40 4 40 15 0 8 -9 15 -20 15 -13 0 -20 7 -20 20 0
17 -7 20 -40 20 l-40 0 0 40 0 40 40 0 c33 0 40 3 40 20 0 17 7 20 40 20 33 0
40 3 40 20 0 13 -7 20 -20 20 -13 0 -20 7 -20 20 0 13 -7 20 -20 20 -13 0 -20
7 -20 20 0 17 -7 20 -40 20 -33 0 -40 3 -40 20 0 13 7 20 20 20 13 0 20 7 20
20 0 18 7 20 60 20 53 0 60 2 60 20 0 13 -7 20 -20 20 -13 0 -20 7 -20 20 0
17 -7 20 -40 20 -33 0 -40 3 -40 20 0 13 -7 20 -20 20 -13 0 -20 7 -20 20 0
13 -7 20 -20 20 -13 0 -20 7 -20 20 0 17 -7 20 -40 20 l-40 0 0 115 c0 108 -1
115 -20 115 -17 0 -20 7 -20 40 0 36 -2 40 -25 40 -18 0 -25 5 -25 20 0 13 -7
20 -20 20 -13 0 -20 7 -20 20 0 18 -7 20 -80 20 -73 0 -80 -2 -80 -20 0 -13
-7 -20 -20 -20 -13 0 -20 -7 -20 -20 0 -13 -7 -20 -20 -20 -13 0 -20 -7 -20
-20 0 -19 -7 -20 -160 -20 -153 0 -160 1 -160 20 0 13 -7 20 -20 20 -13 0 -20
7 -20 20 0 13 -7 20 -20 20 -13 0 -20 7 -20 20 0 18 -7 20 -80 20 -73 0 -80
-2 -80 -20z"/>
</g>
</svg>
